<?xml version="1.0" encoding="utf-8"?>
<?xml-stylesheet type="text/xsl" href="rss1.xsl"?>
<rss version="2.0" xmlns:atom="http://www.w3.org/2005/Atom" xmlns:content="http://purl.org/rss/1.0/modules/content/" xmlns:dc="http://purl.org/dc/elements/1.1/" xmlns:media="http://search.yahoo.com/mrss/">
<channel>
 <title>Getty</title>
 <link>http://www.gettyimg.com/</link>
 <atom:link href="http://www.gettyimg.com/" rel="self" type="application/rss+xml" />

 
                <item>
                <title><![CDATA[【Cinema Center】SERIES - Pretty.Little.Liars.Original.Sin.S02.960/1080p.MAX.WEB-DL.DDP5.1.Atmos.x264-Samuel]]></title>
                <link><![CDATA[https://sharemania.us/threads/pretty-little-liars-original-sin-s02-960-1080p-max-web-dl-ddp5-1-atmos-x264-samuel.244682/]]></link>
                <description><![CDATA[<article>
<blockquote class="messageText SelectQuoteContainer ugc baseHtml">
<div style="text-align: center"><b><span style="font-size: 26px">Pretty Little Liars: Original Sin</span></b><br>
<b><span style="font-size: 22px">Season 2</span></b><br>
<img src="https://i.imgur.com/JqS0Xtw.jpeg" class="bbCodeImage LbImage" alt="[​IMG]" data-url="https://i.imgur.com/JqS0Xtw.jpeg" style=""><br>
<b><a href="https://i.imgur.com/Ssno9Le.jpeg" target="_blank" class="externalLink" rel="nofollow">Alternate Artwork</a></b> | <b><a href="https://i.imgur.com/bC3qiRR.jpeg" target="_blank" class="externalLink" rel="nofollow">Poster</a></b> | <b><a href="https://i.imgur.com/FYx3PVc.jpeg" target="_blank" class="externalLink" rel="nofollow">Thumbnail 1</a></b> | <b><a href="https://i.imgur.com/gy1fte8.jpeg" target="_blank" class="externalLink" rel="nofollow">Thumbnail 2</a></b> | <b><a href="https://i.imgur.com/IiOV27m.jpeg" target="_blank" class="externalLink" rel="nofollow">Key Art</a></b><br>
<br>
TV‑MA • 2 Seasons • <img src="https://i.imgur.com/fxXorAB.png" class="bbCodeImage LbImage" alt="[​IMG]" data-url="https://i.imgur.com/fxXorAB.png" style=""><br>
Teen Dramas • Mystery &amp; Suspense<br>
<br>
<div class="bbCodeBlock bbCodeQuote">
<aside>
<blockquote class="quoteContainer"><div class="quote"><b><span style="font-size: 15px"><span style="font-family: 'Arial'">Description</span></span></b><br>
Set in the Pretty Little Liars universe, a new group of disparate teens finds themselves tormented by the mysterious "A."</div><div class="quoteExpand">Click to expand...</div></blockquote>
</aside>
</div>
<div class="bbCodeBlock bbCodeQuote">
<aside>
<blockquote class="quoteContainer"><div class="quote"><b><span style="font-size: 15px"><span style="font-family: 'Arial'">About This Series</span></span></b><br>
<b><span style="font-size: 15px">Pretty Little Liars: Summer School</span></b><br>
In 1999, tragic events threatened to rip apart a close-knit circle of friends and the small town of Millwood. Twenty years later, a new group of Millwood High students is hunted by an assailant known as "A," who threatens to make them pay for their parents' past transgressions and sins of their own.</div><div class="quoteExpand">Click to expand...</div></blockquote>
</aside>
</div>
<div class="bbCodeBlock bbCodeQuote">
<aside>
<blockquote class="quoteContainer"><div class="quote"><span style="font-family: 'Arial'"><span style="font-size: 15px"><b>Trailers &amp; Clips</b></span></span><br>
<span data-s9e-mediaembed="googledrive" style="display:inline-block;width:100%;max-width:640px"><span style="display:block;overflow:hidden;position:relative;padding-bottom:75%"><iframe allowfullscreen="" loading="lazy" scrolling="no" src="//drive.google.com/file/d/1HZoiELtm5ZQkypQgRpRLBz3CnBDgLyez/preview" style="border:0;height:100%;left:0;position:absolute;width:100%"></iframe></span></span></div><div class="quoteExpand quoteCut">Click to expand...</div></blockquote>
</aside>
</div>
<div class="bbCodeBlock bbCodeQuote">
<aside>
<blockquote class="quoteContainer"><div class="quote"><b><span style="font-size: 15px"><span style="font-family: 'Arial'">Details</span></span></b><br>
<b>Rating Information</b><br>
TV-MA<br>
<br>
<b>Subtitle Languages</b><br>
English - CC, Bulgarian, Czech, Danish, Spanish (Latin American), Spanish (Spain), Finnish, Croatian, Hungarian, Macedonian, Norwegian Bokmaal, Dutch, Polish, Portuguese, Portuguese (Brazil), Romanian, Slovenian, Serbian, Swedish<br>
<br>
<b>Audio Languages</b><br>
English, English - Audio Description, Spanish (Latin American), Spanish (Spain), Hungarian, Polish, Portuguese (Brazil)<br>
<br>
<b>Starring</b><br>
Bailee Madison, Chandler Kinney, Zaria, Malia Pyles, Maia Reficco, Mallory Bechtel, Sharon Leal, Alex Aiono, Jordan Gonzalez, Elias Kacavas<br>
<br>
<b>Writers, Showrunners &amp; Executive Producers</b><br>
Roberto Aguirre-Sacasa and Lindsay Calhoon Bring<br>
<br>
<b>Executive Producers</b><br>
Leslie Morgenstein, Gina Girolamo, Michael Grassi, Caroline Baron, and Marlene King</div><div class="quoteExpand quoteCut">Click to expand...</div></blockquote>
</aside>
</div>
<div class="bbCodeBlock bbCodeQuote">
<aside>
<blockquote class="quoteContainer"><div class="quote"><b><span style="font-size: 15px"><span style="font-family: 'Arial'">Source</span></span></b><br>
<img src="https://i.imgur.com/CCXkKzZ.png" class="bbCodeImage LbImage" alt="[​IMG]" data-url="https://i.imgur.com/CCXkKzZ.png" style=""></div><div class="quoteExpand">Click to expand...</div></blockquote>
</aside>
</div>
<div class="bbCodeBlock bbCodeQuote">
<aside>
<blockquote class="quoteContainer"><div class="quote"><b><span style="font-size: 15px">Release Name</span></b><br>
Pretty.Little.Liars.Original.Sin.S02.960p.MAX.WEB-DL.DDP5.1.Atmos.x264-Samuel<br>
Pretty.Little.Liars.Original.Sin.S02.1080p.MAX.WEB-DL.DDP5.1.Atmos.x264-Samuel</div><div class="quoteExpand">Click to expand...</div></blockquote>
</aside>
</div>
<div class="ToggleTriggerAnchor bbCodeSpoilerContainer">
<button type="button" class="button bbCodeSpoilerButton ToggleTrigger Tooltip JsOnly" data-target="> .SpoilerTarget"><span>Spoiler: <span class="SpoilerTitle">Media Information</span></span></button>
<div class="SpoilerTarget bbCodeSpoilerText"><b><span style="text-decoration: underline">Episode 1: Chapter Eleven: Spookyspaghetti.com</span></b><br>
General<br>
Complete name : Pretty.Little.Liars.Original.Sin.S02E01.Chapter.Eleven.Spookyspaghetti.com.1080p.MAX.WEB-DL.DDP5.1.Atmos.x264-Samuel.mkv<br>
Format : Matroska<br>
Format version : Version 4<br>
File size : 1.89 GiB<br>
Duration : 49 min 55 s<br>
Overall bit rate mode : Variable<br>
Overall bit rate : 5 418 kb/s<br>
Frame rate : 23.976 FPS<br>
Encoded date : 2024-05-11 13:01:19 UTC<br>
Writing application : mkvmerge v84.0 ('Sleeper') 64-bit<br>
Writing library : libebml v1.4.5 + libmatroska v1.7.1<br>
<br>
Video<br>
ID : 1<br>
Format : AVC<br>
Format/Info : Advanced Video Codec<br>
Format profile : High@L4.1<br>
Format settings : CABAC / 4 Ref Frames<br>
Format settings, CABAC : Yes<br>
Format settings, Reference frames : 4 frames<br>
Codec ID : V_MPEG4/ISO/AVC<br>
Duration : 49 min 55 s<br>
Bit rate mode : Variable<br>
Bit rate : 3 235 kb/s<br>
Maximum bit rate : 10 000 kb/s<br>
Width : 1 920 pixels<br>
Height : 1 080 pixels<br>
Display aspect ratio : 16:9<br>
Frame rate mode : Constant<br>
Frame rate : 23.976 (24000/1001) FPS<br>
Color space : YUV<br>
Chroma subsampling : 4:2:0<br>
Bit depth : 8 bits<br>
Scan type : Progressive<br>
Bits/(Pixel*Frame) : 0.065<br>
Stream size : 1.13 GiB (60%)<br>
Writing library : x264 core 164<br>
Encoding settings : cabac=1 / ref=4 / deblock=1:0:0 / analyse=0x3:0x133 / me=umh / subme=10 / psy=1 / psy_rd=1.00:0.00 / mixed_ref=1 / me_range=24 / chroma_me=1 / trellis=2 / 8x8dct=1 / cqm=0 / deadzone=21,11 / fast_pskip=1 / chroma_qp_offset=-2 / threads=24 / lookahead_threads=2 / sliced_threads=0 / nr=0 / decimate=1 / interlaced=0 / bluray_compat=0 / stitchable=1 / constrained_intra=0 / bframes=3 / b_pyramid=2 / b_adapt=2 / b_bias=0 / direct=3 / weightb=1 / open_gop=0 / weightp=2 / keyint=96 / keyint_min=49 / scenecut=0 / intra_refresh=0 / rc_lookahead=96 / rc=crf / mbtree=1 / crf=20.0 / qcomp=0.60 / qpmin=0 / qpmax=69 / qpstep=4 / vbv_maxrate=10000 / vbv_bufsize=40000 / crf_max=0.0 / nal_hrd=vbr / filler=0 / ip_ratio=1.40 / aq=1:1.00<br>
Default : Yes<br>
Forced : No<br>
Color range : Limited<br>
Color primaries : BT.709<br>
Transfer characteristics : BT.709<br>
Matrix coefficients : BT.709<br>
<br>
Audio #1<br>
ID : 2<br>
Format : E-AC-3 JOC<br>
Format/Info : Enhanced AC-3 with Joint Object Coding<br>
Commercial name : Dolby Digital Plus with Dolby Atmos<br>
Format settings : Dolby Surround EX<br>
Codec ID : A_EAC3<br>
Duration : 49 min 55 s<br>
Bit rate mode : Constant<br>
Bit rate : 640 kb/s<br>
Channel(s) : 6 channels<br>
Channel layout : L R C LFE Ls Rs<br>
Sampling rate : 48.0 kHz<br>
Frame rate : 31.250 FPS (1536 SPF)<br>
Compression mode : Lossy<br>
Stream size : 229 MiB (12%)<br>
Language : English<br>
Service kind : Complete Main<br>
Default : Yes<br>
Forced : No<br>
Complexity index : 16<br>
Number of dynamic objects : 15<br>
Bed channel count : 1 channel<br>
Bed channel configuration : LFE<br>
Dialog Normalization : -26 dB<br>
compr : -0.28 dB<br>
dmixmod : Lo/Ro<br>
ltrtcmixlev : -3.0 dB<br>
ltrtsurmixlev : -3.0 dB<br>
lorocmixlev : -3.0 dB<br>
lorosurmixlev : -3.0 dB<br>
dialnorm_Average : -26 dB<br>
dialnorm_Minimum : -26 dB<br>
dialnorm_Maximum : -26 dB<br>
<br>
Audio #2<br>
ID : 3<br>
Format : E-AC-3<br>
Format/Info : Enhanced AC-3<br>
Commercial name : Dolby Digital Plus<br>
Codec ID : A_EAC3<br>
Duration : 49 min 55 s<br>
Bit rate mode : Constant<br>
Bit rate : 256 kb/s<br>
Channel(s) : 6 channels<br>
Channel layout : L R C LFE Ls Rs<br>
Sampling rate : 48.0 kHz<br>
Frame rate : 31.250 FPS (1536 SPF)<br>
Compression mode : Lossy<br>
Stream size : 91.4 MiB (5%)<br>
Title : Audio Description<br>
Language : English<br>
Service kind : Complete Main<br>
Default : No<br>
Forced : No<br>
Dialog Normalization : -23 dB<br>
compr : -0.28 dB<br>
dmixmod : Lo/Ro<br>
ltrtcmixlev : -3.0 dB<br>
ltrtsurmixlev : -3.0 dB<br>
lorocmixlev : -3.0 dB<br>
lorosurmixlev : -3.0 dB<br>
dialnorm_Average : -23 dB<br>
dialnorm_Minimum : -23 dB<br>
dialnorm_Maximum : -23 dB<br>
<br>
Audio #3<br>
ID : 4<br>
Format : E-AC-3<br>
Format/Info : Enhanced AC-3<br>
Commercial name : Dolby Digital Plus<br>
Codec ID : A_EAC3<br>
Duration : 49 min 55 s<br>
Bit rate mode : Constant<br>
Bit rate : 256 kb/s<br>
Channel(s) : 6 channels<br>
Channel layout : L R C LFE Ls Rs<br>
Sampling rate : 48.0 kHz<br>
Frame rate : 31.250 FPS (1536 SPF)<br>
Compression mode : Lossy<br>
Stream size : 91.4 MiB (5%)<br>
Title : Latin American<br>
Language : Spanish<br>
Service kind : Complete Main<br>
Default : No<br>
Forced : No<br>
Dialog Normalization : -23 dB<br>
compr : -0.28 dB<br>
dmixmod : Lo/Ro<br>
ltrtcmixlev : -3.0 dB<br>
ltrtsurmixlev : -3.0 dB<br>
lorocmixlev : -3.0 dB<br>
lorosurmixlev : -3.0 dB<br>
dialnorm_Average : -23 dB<br>
dialnorm_Minimum : -23 dB<br>
dialnorm_Maximum : -23 dB<br>
<br>
Audio #4<br>
ID : 5<br>
Format : E-AC-3<br>
Format/Info : Enhanced AC-3<br>
Commercial name : Dolby Digital Plus<br>
Codec ID : A_EAC3<br>
Duration : 49 min 55 s<br>
Bit rate mode : Constant<br>
Bit rate : 256 kb/s<br>
Channel(s) : 6 channels<br>
Channel layout : L R C LFE Ls Rs<br>
Sampling rate : 48.0 kHz<br>
Frame rate : 31.250 FPS (1536 SPF)<br>
Compression mode : Lossy<br>
Stream size : 91.4 MiB (5%)<br>
Title : European<br>
Language : Spanish<br>
Service kind : Complete Main<br>
Default : No<br>
Forced : No<br>
Dialog Normalization : -23 dB<br>
compr : -0.28 dB<br>
dmixmod : Lo/Ro<br>
ltrtcmixlev : -3.0 dB<br>
ltrtsurmixlev : -3.0 dB<br>
lorocmixlev : -3.0 dB<br>
lorosurmixlev : -3.0 dB<br>
dialnorm_Average : -23 dB<br>
dialnorm_Minimum : -23 dB<br>
dialnorm_Maximum : -23 dB<br>
<br>
Audio #5<br>
ID : 6<br>
Format : E-AC-3<br>
Format/Info : Enhanced AC-3<br>
Commercial name : Dolby Digital Plus<br>
Codec ID : A_EAC3<br>
Duration : 49 min 55 s<br>
Bit rate mode : Constant<br>
Bit rate : 256 kb/s<br>
Channel(s) : 6 channels<br>
Channel layout : L R C LFE Ls Rs<br>
Sampling rate : 48.0 kHz<br>
Frame rate : 31.250 FPS (1536 SPF)<br>
Compression mode : Lossy<br>
Stream size : 91.4 MiB (5%)<br>
Language : Hungarian<br>
Service kind : Complete Main<br>
Default : No<br>
Forced : No<br>
Dialog Normalization : -23 dB<br>
compr : -0.28 dB<br>
dmixmod : Lo/Ro<br>
ltrtcmixlev : -3.0 dB<br>
ltrtsurmixlev : -3.0 dB<br>
lorocmixlev : -3.0 dB<br>
lorosurmixlev : -3.0 dB<br>
dialnorm_Average : -23 dB<br>
dialnorm_Minimum : -23 dB<br>
dialnorm_Maximum : -23 dB<br>
<br>
Audio #6<br>
ID : 7<br>
Format : E-AC-3<br>
Format/Info : Enhanced AC-3<br>
Commercial name : Dolby Digital Plus<br>
Codec ID : A_EAC3<br>
Duration : 49 min 55 s<br>
Bit rate mode : Constant<br>
Bit rate : 256 kb/s<br>
Channel(s) : 6 channels<br>
Channel layout : L R C LFE Ls Rs<br>
Sampling rate : 48.0 kHz<br>
Frame rate : 31.250 FPS (1536 SPF)<br>
Compression mode : Lossy<br>
Stream size : 91.4 MiB (5%)<br>
Language : Polish<br>
Service kind : Complete Main<br>
Default : No<br>
Forced : No<br>
Dialog Normalization : -23 dB<br>
compr : -0.28 dB<br>
dmixmod : Lo/Ro<br>
ltrtcmixlev : -3.0 dB<br>
ltrtsurmixlev : -3.0 dB<br>
lorocmixlev : -3.0 dB<br>
lorosurmixlev : -3.0 dB<br>
dialnorm_Average : -23 dB<br>
dialnorm_Minimum : -23 dB<br>
dialnorm_Maximum : -23 dB<br>
<br>
Audio #7<br>
ID : 8<br>
Format : E-AC-3<br>
Format/Info : Enhanced AC-3<br>
Commercial name : Dolby Digital Plus<br>
Codec ID : A_EAC3<br>
Duration : 49 min 55 s<br>
Bit rate mode : Constant<br>
Bit rate : 256 kb/s<br>
Channel(s) : 6 channels<br>
Channel layout : L R C LFE Ls Rs<br>
Sampling rate : 48.0 kHz<br>
Frame rate : 31.250 FPS (1536 SPF)<br>
Compression mode : Lossy<br>
Stream size : 91.4 MiB (5%)<br>
Title : Brazilian<br>
Language : Portuguese<br>
Service kind : Complete Main<br>
Default : No<br>
Forced : No<br>
Dialog Normalization : -23 dB<br>
compr : -0.28 dB<br>
dmixmod : Lo/Ro<br>
ltrtcmixlev : -3.0 dB<br>
ltrtsurmixlev : -3.0 dB<br>
lorocmixlev : -3.0 dB<br>
lorosurmixlev : -3.0 dB<br>
dialnorm_Average : -23 dB<br>
dialnorm_Minimum : -23 dB<br>
dialnorm_Maximum : -23 dB<br>
<br>
Text #1<br>
ID : 9<br>
Format : UTF-8<br>
Codec ID : S_TEXT/UTF8<br>
Codec ID/Info : UTF-8 Plain Text<br>
Duration : 49 min 29 s<br>
Bit rate : 84 b/s<br>
Frame rate : 0.290 FPS<br>
Count of elements : 861<br>
Stream size : 30.6 KiB (0%)<br>
Language : English<br>
Default : No<br>
Forced : No<br>
<br>
Text #2<br>
ID : 10<br>
Format : UTF-8<br>
Codec ID : S_TEXT/UTF8<br>
Codec ID/Info : UTF-8 Plain Text<br>
Duration : 48 min 42 s<br>
Bit rate : 115 b/s<br>
Frame rate : 0.258 FPS<br>
Count of elements : 753<br>
Stream size : 41.3 KiB (0%)<br>
Language : Bulgarian<br>
Default : No<br>
Forced : No<br>
<br>
Text #3<br>
ID : 11<br>
Format : UTF-8<br>
Codec ID : S_TEXT/UTF8<br>
Codec ID/Info : UTF-8 Plain Text<br>
Duration : 48 min 1 s<br>
Bit rate : 73 b/s<br>
Frame rate : 0.255 FPS<br>
Count of elements : 736<br>
Stream size : 25.9 KiB (0%)<br>
Language : Czech<br>
Default : No<br>
Forced : No<br>
<br>
Text #4<br>
ID : 12<br>
Format : UTF-8<br>
Codec ID : S_TEXT/UTF8<br>
Codec ID/Info : UTF-8 Plain Text<br>
Duration : 48 min 42 s<br>
Bit rate : 61 b/s<br>
Frame rate : 0.257 FPS<br>
Count of elements : 751<br>
Stream size : 22.1 KiB (0%)<br>
Language : Danish<br>
Default : No<br>
Forced : No<br>
<br>
Text #5<br>
ID : 13<br>
Format : UTF-8<br>
Codec ID : S_TEXT/UTF8<br>
Codec ID/Info : UTF-8 Plain Text<br>
Duration : 48 min 42 s<br>
Bit rate : 68 b/s<br>
Frame rate : 0.257 FPS<br>
Count of elements : 752<br>
Stream size : 24.6 KiB (0%)<br>
Title : Latin American<br>
Language : Spanish<br>
Default : No<br>
Forced : No<br>
<br>
Text #6<br>
ID : 14<br>
Format : UTF-8<br>
Codec ID : S_TEXT/UTF8<br>
Codec ID/Info : UTF-8 Plain Text<br>
Duration : 47 min 56 s<br>
Bit rate : 77 b/s<br>
Frame rate : 0.272 FPS<br>
Count of elements : 781<br>
Stream size : 27.1 KiB (0%)<br>
Title : European<br>
Language : Spanish<br>
Default : No<br>
Forced : No<br>
<br>
Text #7<br>
ID : 15<br>
Format : UTF-8<br>
Codec ID : S_TEXT/UTF8<br>
Codec ID/Info : UTF-8 Plain Text<br>
Duration : 48 min 42 s<br>
Bit rate : 67 b/s<br>
Frame rate : 0.257 FPS<br>
Count of elements : 752<br>
Stream size : 24.0 KiB (0%)<br>
Language : Finnish<br>
Default : No<br>
Forced : No<br>
<br>
Text #8<br>
ID : 16<br>
Format : UTF-8<br>
Codec ID : S_TEXT/UTF8<br>
Codec ID/Info : UTF-8 Plain Text<br>
Duration : 48 min 42 s<br>
Bit rate : 66 b/s<br>
Frame rate : 0.256 FPS<br>
Count of elements : 747<br>
Stream size : 23.7 KiB (0%)<br>
Language : Croatian<br>
Default : No<br>
Forced : No<br>
<br>
Text #9<br>
ID : 17<br>
Format : UTF-8<br>
Codec ID : S_TEXT/UTF8<br>
Codec ID/Info : UTF-8 Plain Text<br>
Duration : 48 min 42 s<br>
Bit rate : 73 b/s<br>
Frame rate : 0.258 FPS<br>
Count of elements : 755<br>
Stream size : 26.1 KiB (0%)<br>
Language : Hungarian<br>
Default : No<br>
Forced : No<br>
<br>
Text #10<br>
ID : 18<br>
Format : UTF-8<br>
Codec ID : S_TEXT/UTF8<br>
Codec ID/Info : UTF-8 Plain Text<br>
Duration : 48 min 42 s<br>
Bit rate : 129 b/s<br>
Frame rate : 0.258 FPS<br>
Count of elements : 754<br>
Stream size : 46.1 KiB (0%)<br>
Language : Macedonian<br>
Default : No<br>
Forced : No<br>
<br>
Text #11<br>
ID : 19<br>
Format : UTF-8<br>
Codec ID : S_TEXT/UTF8<br>
Codec ID/Info : UTF-8 Plain Text<br>
Duration : 48 min 42 s<br>
Bit rate : 68 b/s<br>
Frame rate : 0.257 FPS<br>
Count of elements : 751<br>
Stream size : 24.6 KiB (0%)<br>
Language : Norwegian Bokmal<br>
Default : No<br>
Forced : No<br>
<br>
Text #12<br>
ID : 20<br>
Format : UTF-8<br>
Codec ID : S_TEXT/UTF8<br>
Codec ID/Info : UTF-8 Plain Text<br>
Duration : 48 min 42 s<br>
Bit rate : 64 b/s<br>
Frame rate : 0.252 FPS<br>
Count of elements : 736<br>
Stream size : 23.1 KiB (0%)<br>
Language : Dutch<br>
Default : No<br>
Forced : No<br>
<br>
Text #13<br>
ID : 21<br>
Format : UTF-8<br>
Codec ID : S_TEXT/UTF8<br>
Codec ID/Info : UTF-8 Plain Text<br>
Duration : 47 min 55 s<br>
Bit rate : 68 b/s<br>
Frame rate : 0.264 FPS<br>
Count of elements : 759<br>
Stream size : 24.2 KiB (0%)<br>
Language : Polish<br>
Default : No<br>
Forced : No<br>
<br>
Text #14<br>
ID : 22<br>
Format : UTF-8<br>
Codec ID : S_TEXT/UTF8<br>
Codec ID/Info : UTF-8 Plain Text<br>
Duration : 48 min 42 s<br>
Bit rate : 69 b/s<br>
Frame rate : 0.258 FPS<br>
Count of elements : 754<br>
Stream size : 24.8 KiB (0%)<br>
Title : Brazilian<br>
Language : Portuguese<br>
Default : No<br>
Forced : No<br>
<br>
Text #15<br>
ID : 23<br>
Format : UTF-8<br>
Codec ID : S_TEXT/UTF8<br>
Codec ID/Info : UTF-8 Plain Text<br>
Duration : 48 min 42 s<br>
Bit rate : 72 b/s<br>
Frame rate : 0.257 FPS<br>
Count of elements : 752<br>
Stream size : 25.8 KiB (0%)<br>
Title : European<br>
Language : Portuguese<br>
Default : No<br>
Forced : No<br>
<br>
Text #16<br>
ID : 24<br>
Format : UTF-8<br>
Codec ID : S_TEXT/UTF8<br>
Codec ID/Info : UTF-8 Plain Text<br>
Duration : 48 min 42 s<br>
Bit rate : 72 b/s<br>
Frame rate : 0.256 FPS<br>
Count of elements : 749<br>
Stream size : 25.9 KiB (0%)<br>
Language : Romanian<br>
Default : No<br>
Forced : No<br>
<br>
Text #17<br>
ID : 25<br>
Format : UTF-8<br>
Codec ID : S_TEXT/UTF8<br>
Codec ID/Info : UTF-8 Plain Text<br>
Duration : 48 min 42 s<br>
Bit rate : 71 b/s<br>
Frame rate : 0.257 FPS<br>
Count of elements : 752<br>
Stream size : 25.6 KiB (0%)<br>
Language : Slovenian<br>
Default : No<br>
Forced : No<br>
<br>
Text #18<br>
ID : 26<br>
Format : UTF-8<br>
Codec ID : S_TEXT/UTF8<br>
Codec ID/Info : UTF-8 Plain Text<br>
Duration : 48 min 42 s<br>
Bit rate : 62 b/s<br>
Frame rate : 0.258 FPS<br>
Count of elements : 753<br>
Stream size : 22.1 KiB (0%)<br>
Language : Serbian<br>
Default : No<br>
Forced : No<br>
<br>
Text #19<br>
ID : 27<br>
Format : UTF-8<br>
Codec ID : S_TEXT/UTF8<br>
Codec ID/Info : UTF-8 Plain Text<br>
Duration : 48 min 42 s<br>
Bit rate : 68 b/s<br>
Frame rate : 0.256 FPS<br>
Count of elements : 748<br>
Stream size : 24.3 KiB (0%)<br>
Language : Swedish<br>
Default : No<br>
Forced : No<br>
<br>
Menu<br>
00:00:30.030 : en:Recap<br>
00:02:27.981 : en:Content<br>
00:02:32.026 : en:Intro<br>
00:03:36.133 : en:Content<br>
00:51:27.125 : en:Credits<br>
<br>
<b><span style="text-decoration: underline">Episode 2: Chapter Twelve: Summer Lovin</span></b><br>
General<br>
Complete name : Pretty.Little.Liars.Original.Sin.S02E02.Chapter.Twelve.Summer.Lovin.960p.MAX.WEB-DL.DDP5.1.Atmos.x264-Samuel.mkv<br>
Format : Matroska<br>
Format version : Version 4<br>
File size : 1.73 GiB<br>
Duration : 50 min 20 s<br>
Overall bit rate mode : Variable<br>
Overall bit rate : 4 925 kb/s<br>
Frame rate : 23.976 FPS<br>
Encoded date : 2024-05-11 13:10:22 UTC<br>
Writing application : mkvmerge v84.0 ('Sleeper') 64-bit<br>
Writing library : libebml v1.4.5 + libmatroska v1.7.1<br>
<br>
Video<br>
ID : 1<br>
Format : AVC<br>
Format/Info : Advanced Video Codec<br>
Format profile : High@L4.1<br>
Format settings : CABAC / 4 Ref Frames<br>
Format settings, CABAC : Yes<br>
Format settings, Reference frames : 4 frames<br>
Codec ID : V_MPEG4/ISO/AVC<br>
Duration : 50 min 20 s<br>
Bit rate mode : Variable<br>
Bit rate : 2 999 kb/s<br>
Maximum bit rate : 10 000 kb/s<br>
Width : 1 920 pixels<br>
Height : 960 pixels<br>
Display aspect ratio : 2.000<br>
Frame rate mode : Constant<br>
Frame rate : 23.976 (24000/1001) FPS<br>
Color space : YUV<br>
Chroma subsampling : 4:2:0<br>
Bit depth : 8 bits<br>
Scan type : Progressive<br>
Bits/(Pixel*Frame) : 0.068<br>
Stream size : 1.05 GiB (61%)<br>
Writing library : x264 core 164<br>
Encoding settings : cabac=1 / ref=4 / deblock=1:0:0 / analyse=0x3:0x133 / me=umh / subme=10 / psy=1 / psy_rd=1.00:0.00 / mixed_ref=1 / me_range=24 / chroma_me=1 / trellis=2 / 8x8dct=1 / cqm=0 / deadzone=21,11 / fast_pskip=1 / chroma_qp_offset=-2 / threads=24 / lookahead_threads=2 / sliced_threads=0 / nr=0 / decimate=1 / interlaced=0 / bluray_compat=0 / stitchable=1 / constrained_intra=0 / bframes=3 / b_pyramid=2 / b_adapt=2 / b_bias=0 / direct=3 / weightb=1 / open_gop=0 / weightp=2 / keyint=96 / keyint_min=49 / scenecut=0 / intra_refresh=0 / rc_lookahead=96 / rc=crf / mbtree=1 / crf=20.0 / qcomp=0.60 / qpmin=0 / qpmax=69 / qpstep=4 / vbv_maxrate=10000 / vbv_bufsize=40000 / crf_max=0.0 / nal_hrd=vbr / filler=0 / ip_ratio=1.40 / aq=1:1.00<br>
Default : Yes<br>
Forced : No<br>
Color range : Limited<br>
Color primaries : BT.709<br>
Transfer characteristics : BT.709<br>
Matrix coefficients : BT.709<br>
<br>
Audio #1<br>
ID : 2<br>
Format : E-AC-3 JOC<br>
Format/Info : Enhanced AC-3 with Joint Object Coding<br>
Commercial name : Dolby Digital Plus with Dolby Atmos<br>
Format settings : Dolby Surround EX<br>
Codec ID : A_EAC3<br>
Duration : 50 min 20 s<br>
Bit rate mode : Constant<br>
Bit rate : 640 kb/s<br>
Channel(s) : 6 channels<br>
Channel layout : L R C LFE Ls Rs<br>
Sampling rate : 48.0 kHz<br>
Frame rate : 31.250 FPS (1536 SPF)<br>
Compression mode : Lossy<br>
Stream size : 230 MiB (13%)<br>
Language : English<br>
Service kind : Complete Main<br>
Default : Yes<br>
Forced : No<br>
Complexity index : 16<br>
Number of dynamic objects : 15<br>
Bed channel count : 1 channel<br>
Bed channel configuration : LFE<br>
Dialog Normalization : -25 dB<br>
compr : -0.28 dB<br>
dmixmod : Lo/Ro<br>
ltrtcmixlev : -3.0 dB<br>
ltrtsurmixlev : -3.0 dB<br>
lorocmixlev : -3.0 dB<br>
lorosurmixlev : -3.0 dB<br>
dialnorm_Average : -25 dB<br>
dialnorm_Minimum : -25 dB<br>
dialnorm_Maximum : -25 dB<br>
<br>
Audio #2<br>
ID : 3<br>
Format : E-AC-3<br>
Format/Info : Enhanced AC-3<br>
Commercial name : Dolby Digital Plus<br>
Codec ID : A_EAC3<br>
Duration : 50 min 20 s<br>
Bit rate mode : Constant<br>
Bit rate : 256 kb/s<br>
Channel(s) : 6 channels<br>
Channel layout : L R C LFE Ls Rs<br>
Sampling rate : 48.0 kHz<br>
Frame rate : 31.250 FPS (1536 SPF)<br>
Compression mode : Lossy<br>
Stream size : 92.2 MiB (5%)<br>
Title : Audio Description<br>
Language : English<br>
Service kind : Complete Main<br>
Default : No<br>
Forced : No<br>
Dialog Normalization : -23 dB<br>
compr : -0.28 dB<br>
dmixmod : Lo/Ro<br>
ltrtcmixlev : -3.0 dB<br>
ltrtsurmixlev : -3.0 dB<br>
lorocmixlev : -3.0 dB<br>
lorosurmixlev : -3.0 dB<br>
dialnorm_Average : -23 dB<br>
dialnorm_Minimum : -23 dB<br>
dialnorm_Maximum : -23 dB<br>
<br>
Audio #3<br>
ID : 4<br>
Format : E-AC-3<br>
Format/Info : Enhanced AC-3<br>
Commercial name : Dolby Digital Plus<br>
Codec ID : A_EAC3<br>
Duration : 50 min 20 s<br>
Bit rate mode : Constant<br>
Bit rate : 256 kb/s<br>
Channel(s) : 6 channels<br>
Channel layout : L R C LFE Ls Rs<br>
Sampling rate : 48.0 kHz<br>
Frame rate : 31.250 FPS (1536 SPF)<br>
Compression mode : Lossy<br>
Stream size : 92.2 MiB (5%)<br>
Title : Latin American<br>
Language : Spanish<br>
Service kind : Complete Main<br>
Default : No<br>
Forced : No<br>
Dialog Normalization : -23 dB<br>
compr : -0.28 dB<br>
dmixmod : Lo/Ro<br>
ltrtcmixlev : -3.0 dB<br>
ltrtsurmixlev : -3.0 dB<br>
lorocmixlev : -3.0 dB<br>
lorosurmixlev : -3.0 dB<br>
dialnorm_Average : -23 dB<br>
dialnorm_Minimum : -23 dB<br>
dialnorm_Maximum : -23 dB<br>
<br>
Audio #4<br>
ID : 5<br>
Format : E-AC-3<br>
Format/Info : Enhanced AC-3<br>
Commercial name : Dolby Digital Plus<br>
Codec ID : A_EAC3<br>
Duration : 50 min 20 s<br>
Bit rate mode : Constant<br>
Bit rate : 256 kb/s<br>
Channel(s) : 6 channels<br>
Channel layout : L R C LFE Ls Rs<br>
Sampling rate : 48.0 kHz<br>
Frame rate : 31.250 FPS (1536 SPF)<br>
Compression mode : Lossy<br>
Stream size : 92.2 MiB (5%)<br>
Language : Hungarian<br>
Service kind : Complete Main<br>
Default : No<br>
Forced : No<br>
Dialog Normalization : -23 dB<br>
compr : -0.28 dB<br>
dmixmod : Lo/Ro<br>
ltrtcmixlev : -3.0 dB<br>
ltrtsurmixlev : -3.0 dB<br>
lorocmixlev : -3.0 dB<br>
lorosurmixlev : -3.0 dB<br>
dialnorm_Average : -23 dB<br>
dialnorm_Minimum : -23 dB<br>
dialnorm_Maximum : -23 dB<br>
<br>
Audio #5<br>
ID : 6<br>
Format : E-AC-3<br>
Format/Info : Enhanced AC-3<br>
Commercial name : Dolby Digital Plus<br>
Codec ID : A_EAC3<br>
Duration : 50 min 20 s<br>
Bit rate mode : Constant<br>
Bit rate : 256 kb/s<br>
Channel(s) : 6 channels<br>
Channel layout : L R C LFE Ls Rs<br>
Sampling rate : 48.0 kHz<br>
Frame rate : 31.250 FPS (1536 SPF)<br>
Compression mode : Lossy<br>
Stream size : 92.2 MiB (5%)<br>
Language : Polish<br>
Service kind : Complete Main<br>
Default : No<br>
Forced : No<br>
Dialog Normalization : -23 dB<br>
compr : -0.28 dB<br>
dmixmod : Lo/Ro<br>
ltrtcmixlev : -3.0 dB<br>
ltrtsurmixlev : -3.0 dB<br>
lorocmixlev : -3.0 dB<br>
lorosurmixlev : -3.0 dB<br>
dialnorm_Average : -23 dB<br>
dialnorm_Minimum : -23 dB<br>
dialnorm_Maximum : -23 dB<br>
<br>
Audio #6<br>
ID : 7<br>
Format : E-AC-3<br>
Format/Info : Enhanced AC-3<br>
Commercial name : Dolby Digital Plus<br>
Codec ID : A_EAC3<br>
Duration : 50 min 20 s<br>
Bit rate mode : Constant<br>
Bit rate : 256 kb/s<br>
Channel(s) : 6 channels<br>
Channel layout : L R C LFE Ls Rs<br>
Sampling rate : 48.0 kHz<br>
Frame rate : 31.250 FPS (1536 SPF)<br>
Compression mode : Lossy<br>
Stream size : 92.2 MiB (5%)<br>
Title : Brazilian<br>
Language : Portuguese<br>
Service kind : Complete Main<br>
Default : No<br>
Forced : No<br>
Dialog Normalization : -23 dB<br>
compr : -0.28 dB<br>
dmixmod : Lo/Ro<br>
ltrtcmixlev : -3.0 dB<br>
ltrtsurmixlev : -3.0 dB<br>
lorocmixlev : -3.0 dB<br>
lorosurmixlev : -3.0 dB<br>
dialnorm_Average : -23 dB<br>
dialnorm_Minimum : -23 dB<br>
dialnorm_Maximum : -23 dB<br>
<br>
Text #1<br>
ID : 8<br>
Format : UTF-8<br>
Codec ID : S_TEXT/UTF8<br>
Codec ID/Info : UTF-8 Plain Text<br>
Duration : 49 min 18 s<br>
Bit rate : 88 b/s<br>
Frame rate : 0.291 FPS<br>
Count of elements : 860<br>
Stream size : 31.8 KiB (0%)<br>
Language : English<br>
Default : No<br>
Forced : No<br>
<br>
Text #2<br>
ID : 9<br>
Format : UTF-8<br>
Codec ID : S_TEXT/UTF8<br>
Codec ID/Info : UTF-8 Plain Text<br>
Duration : 48 min 52 s<br>
Bit rate : 105 b/s<br>
Frame rate : 0.253 FPS<br>
Count of elements : 741<br>
Stream size : 37.8 KiB (0%)<br>
Language : Bulgarian<br>
Default : No<br>
Forced : No<br>
<br>
Text #3<br>
ID : 10<br>
Format : UTF-8<br>
Codec ID : S_TEXT/UTF8<br>
Codec ID/Info : UTF-8 Plain Text<br>
Duration : 48 min 27 s<br>
Bit rate : 69 b/s<br>
Frame rate : 0.247 FPS<br>
Count of elements : 719<br>
Stream size : 24.7 KiB (0%)<br>
Language : Czech<br>
Default : No<br>
Forced : No<br>
<br>
Text #4<br>
ID : 11<br>
Format : UTF-8<br>
Codec ID : S_TEXT/UTF8<br>
Codec ID/Info : UTF-8 Plain Text<br>
Duration : 48 min 52 s<br>
Bit rate : 64 b/s<br>
Frame rate : 0.251 FPS<br>
Count of elements : 736<br>
Stream size : 22.9 KiB (0%)<br>
Language : Danish<br>
Default : No<br>
Forced : No<br>
<br>
Text #5<br>
ID : 12<br>
Format : UTF-8<br>
Codec ID : S_TEXT/UTF8<br>
Codec ID/Info : UTF-8 Plain Text<br>
Duration : 48 min 52 s<br>
Bit rate : 63 b/s<br>
Frame rate : 0.253 FPS<br>
Count of elements : 742<br>
Stream size : 22.7 KiB (0%)<br>
Title : Latin American<br>
Language : Spanish<br>
Default : No<br>
Forced : No<br>
<br>
Text #6<br>
ID : 13<br>
Format : UTF-8<br>
Codec ID : S_TEXT/UTF8<br>
Codec ID/Info : UTF-8 Plain Text<br>
Duration : 48 min 22 s<br>
Bit rate : 74 b/s<br>
Frame rate : 0.269 FPS<br>
Count of elements : 782<br>
Stream size : 26.4 KiB (0%)<br>
Title : European<br>
Language : Spanish<br>
Default : No<br>
Forced : No<br>
<br>
Text #7<br>
ID : 14<br>
Format : UTF-8<br>
Codec ID : S_TEXT/UTF8<br>
Codec ID/Info : UTF-8 Plain Text<br>
Duration : 48 min 52 s<br>
Bit rate : 64 b/s<br>
Frame rate : 0.251 FPS<br>
Count of elements : 735<br>
Stream size : 23.3 KiB (0%)<br>
Language : Finnish<br>
Default : No<br>
Forced : No<br>
<br>
Text #8<br>
ID : 15<br>
Format : UTF-8<br>
Codec ID : S_TEXT/UTF8<br>
Codec ID/Info : UTF-8 Plain Text<br>
Duration : 48 min 52 s<br>
Bit rate : 63 b/s<br>
Frame rate : 0.252 FPS<br>
Count of elements : 740<br>
Stream size : 22.6 KiB (0%)<br>
Language : Croatian<br>
Default : No<br>
Forced : No<br>
<br>
Text #9<br>
ID : 16<br>
Format : UTF-8<br>
Codec ID : S_TEXT/UTF8<br>
Codec ID/Info : UTF-8 Plain Text<br>
Duration : 48 min 52 s<br>
Bit rate : 69 b/s<br>
Frame rate : 0.254 FPS<br>
Count of elements : 745<br>
Stream size : 24.9 KiB (0%)<br>
Language : Hungarian<br>
Default : No<br>
Forced : No<br>
<br>
Text #10<br>
ID : 17<br>
Format : UTF-8<br>
Codec ID : S_TEXT/UTF8<br>
Codec ID/Info : UTF-8 Plain Text<br>
Duration : 48 min 52 s<br>
Bit rate : 119 b/s<br>
Frame rate : 0.253 FPS<br>
Count of elements : 741<br>
Stream size : 42.7 KiB (0%)<br>
Language : Macedonian<br>
Default : No<br>
Forced : No<br>
<br>
Text #11<br>
ID : 18<br>
Format : UTF-8<br>
Codec ID : S_TEXT/UTF8<br>
Codec ID/Info : UTF-8 Plain Text<br>
Duration : 48 min 52 s<br>
Bit rate : 62 b/s<br>
Frame rate : 0.251 FPS<br>
Count of elements : 737<br>
Stream size : 22.5 KiB (0%)<br>
Language : Norwegian Bokmal<br>
Default : No<br>
Forced : No<br>
<br>
Text #12<br>
ID : 19<br>
Format : UTF-8<br>
Codec ID : S_TEXT/UTF8<br>
Codec ID/Info : UTF-8 Plain Text<br>
Duration : 48 min 52 s<br>
Bit rate : 60 b/s<br>
Frame rate : 0.244 FPS<br>
Count of elements : 714<br>
Stream size : 21.8 KiB (0%)<br>
Language : Dutch<br>
Default : No<br>
Forced : No<br>
<br>
Text #13<br>
ID : 20<br>
Format : UTF-8<br>
Codec ID : S_TEXT/UTF8<br>
Codec ID/Info : UTF-8 Plain Text<br>
Duration : 49 min 23 s<br>
Bit rate : 61 b/s<br>
Frame rate : 0.244 FPS<br>
Count of elements : 724<br>
Stream size : 22.2 KiB (0%)<br>
Language : Polish<br>
Default : No<br>
Forced : No<br>
<br>
Text #14<br>
ID : 21<br>
Format : UTF-8<br>
Codec ID : S_TEXT/UTF8<br>
Codec ID/Info : UTF-8 Plain Text<br>
Duration : 48 min 52 s<br>
Bit rate : 64 b/s<br>
Frame rate : 0.253 FPS<br>
Count of elements : 743<br>
Stream size : 23.0 KiB (0%)<br>
Title : Brazilian<br>
Language : Portuguese<br>
Default : No<br>
Forced : No<br>
<br>
Text #15<br>
ID : 22<br>
Format : UTF-8<br>
Codec ID : S_TEXT/UTF8<br>
Codec ID/Info : UTF-8 Plain Text<br>
Duration : 48 min 52 s<br>
Bit rate : 68 b/s<br>
Frame rate : 0.251 FPS<br>
Count of elements : 737<br>
Stream size : 24.6 KiB (0%)<br>
Title : European<br>
Language : Portuguese<br>
Default : No<br>
Forced : No<br>
<br>
Text #16<br>
ID : 23<br>
Format : UTF-8<br>
Codec ID : S_TEXT/UTF8<br>
Codec ID/Info : UTF-8 Plain Text<br>
Duration : 48 min 52 s<br>
Bit rate : 67 b/s<br>
Frame rate : 0.251 FPS<br>
Count of elements : 737<br>
Stream size : 24.0 KiB (0%)<br>
Language : Romanian<br>
Default : No<br>
Forced : No<br>
<br>
Text #17<br>
ID : 24<br>
Format : UTF-8<br>
Codec ID : S_TEXT/UTF8<br>
Codec ID/Info : UTF-8 Plain Text<br>
Duration : 48 min 52 s<br>
Bit rate : 64 b/s<br>
Frame rate : 0.252 FPS<br>
Count of elements : 739<br>
Stream size : 23.1 KiB (0%)<br>
Language : Slovenian<br>
Default : No<br>
Forced : No<br>
<br>
Text #18<br>
ID : 25<br>
Format : UTF-8<br>
Codec ID : S_TEXT/UTF8<br>
Codec ID/Info : UTF-8 Plain Text<br>
Duration : 48 min 52 s<br>
Bit rate : 60 b/s<br>
Frame rate : 0.252 FPS<br>
Count of elements : 740<br>
Stream size : 21.7 KiB (0%)<br>
Language : Serbian<br>
Default : No<br>
Forced : No<br>
<br>
Text #19<br>
ID : 26<br>
Format : UTF-8<br>
Codec ID : S_TEXT/UTF8<br>
Codec ID/Info : UTF-8 Plain Text<br>
Duration : 48 min 52 s<br>
Bit rate : 65 b/s<br>
Frame rate : 0.251 FPS<br>
Count of elements : 735<br>
Stream size : 23.4 KiB (0%)<br>
Language : Swedish<br>
Default : No<br>
Forced : No<br>
<br>
Menu<br>
00:00:10.010 : en:Intro<br>
00:01:14.075 : en:Content<br>
00:49:29.925 : en:Credits<br>
<br>
<b><span style="text-decoration: underline">Episode 3: Chapter Thirteen: Sweet Sixteen</span></b><br>
General<br>
Complete name : Pretty.Little.Liars.Original.Sin.S02E03.Chapter.Thirteen.Sweet.Sixteen.960p.MAX.WEB-DL.DDP5.1.Atmos.x264-Samuel.mkv<br>
Format : Matroska<br>
Format version : Version 4<br>
File size : 1.97 GiB<br>
Duration : 48 min 52 s<br>
Overall bit rate mode : Variable<br>
Overall bit rate : 5 765 kb/s<br>
Frame rate : 23.976 FPS<br>
Encoded date : 2024-05-18 16:47:49 UTC<br>
Writing application : mkvmerge v84.0 ('Sleeper') 64-bit<br>
Writing library : libebml v1.4.5 + libmatroska v1.7.1<br>
<br>
Video<br>
ID : 1<br>
Format : AVC<br>
Format/Info : Advanced Video Codec<br>
Format profile : High@L4.1<br>
Format settings : CABAC / 4 Ref Frames<br>
Format settings, CABAC : Yes<br>
Format settings, Reference frames : 4 frames<br>
Codec ID : V_MPEG4/ISO/AVC<br>
Duration : 48 min 52 s<br>
Bit rate mode : Variable<br>
Bit rate : 3 583 kb/s<br>
Maximum bit rate : 10 000 kb/s<br>
Width : 1 920 pixels<br>
Height : 960 pixels<br>
Display aspect ratio : 2.000<br>
Frame rate mode : Constant<br>
Frame rate : 23.976 (24000/1001) FPS<br>
Color space : YUV<br>
Chroma subsampling : 4:2:0<br>
Bit depth : 8 bits<br>
Scan type : Progressive<br>
Bits/(Pixel*Frame) : 0.081<br>
Stream size : 1.22 GiB (62%)<br>
Writing library : x264 core 164<br>
Encoding settings : cabac=1 / ref=4 / deblock=1:0:0 / analyse=0x3:0x133 / me=umh / subme=10 / psy=1 / psy_rd=1.00:0.00 / mixed_ref=1 / me_range=24 / chroma_me=1 / trellis=2 / 8x8dct=1 / cqm=0 / deadzone=21,11 / fast_pskip=1 / chroma_qp_offset=-2 / threads=24 / lookahead_threads=2 / sliced_threads=0 / nr=0 / decimate=1 / interlaced=0 / bluray_compat=0 / stitchable=1 / constrained_intra=0 / bframes=3 / b_pyramid=2 / b_adapt=2 / b_bias=0 / direct=3 / weightb=1 / open_gop=0 / weightp=2 / keyint=96 / keyint_min=49 / scenecut=0 / intra_refresh=0 / rc_lookahead=96 / rc=crf / mbtree=1 / crf=20.0 / qcomp=0.60 / qpmin=0 / qpmax=69 / qpstep=4 / vbv_maxrate=10000 / vbv_bufsize=40000 / crf_max=0.0 / nal_hrd=vbr / filler=0 / ip_ratio=1.40 / aq=1:1.00<br>
Default : Yes<br>
Forced : No<br>
Color range : Limited<br>
Color primaries : BT.709<br>
Transfer characteristics : BT.709<br>
Matrix coefficients : BT.709<br>
<br>
Audio #1<br>
ID : 2<br>
Format : E-AC-3 JOC<br>
Format/Info : Enhanced AC-3 with Joint Object Coding<br>
Commercial name : Dolby Digital Plus with Dolby Atmos<br>
Format settings : Dolby Surround EX<br>
Codec ID : A_EAC3<br>
Duration : 48 min 52 s<br>
Bit rate mode : Constant<br>
Bit rate : 640 kb/s<br>
Channel(s) : 6 channels<br>
Channel layout : L R C LFE Ls Rs<br>
Sampling rate : 48.0 kHz<br>
Frame rate : 31.250 FPS (1536 SPF)<br>
Compression mode : Lossy<br>
Stream size : 224 MiB (11%)<br>
Language : English<br>
Service kind : Complete Main<br>
Default : Yes<br>
Forced : No<br>
Complexity index : 16<br>
Number of dynamic objects : 15<br>
Bed channel count : 1 channel<br>
Bed channel configuration : LFE<br>
Dialog Normalization : -25 dB<br>
compr : -0.28 dB<br>
dmixmod : Lo/Ro<br>
ltrtcmixlev : -3.0 dB<br>
ltrtsurmixlev : -3.0 dB<br>
lorocmixlev : -3.0 dB<br>
lorosurmixlev : -3.0 dB<br>
dialnorm_Average : -25 dB<br>
dialnorm_Minimum : -25 dB<br>
dialnorm_Maximum : -25 dB<br>
<br>
Audio #2<br>
ID : 3<br>
Format : E-AC-3<br>
Format/Info : Enhanced AC-3<br>
Commercial name : Dolby Digital Plus<br>
Codec ID : A_EAC3<br>
Duration : 48 min 52 s<br>
Bit rate mode : Constant<br>
Bit rate : 256 kb/s<br>
Channel(s) : 6 channels<br>
Channel layout : L R C LFE Ls Rs<br>
Sampling rate : 48.0 kHz<br>
Frame rate : 31.250 FPS (1536 SPF)<br>
Compression mode : Lossy<br>
Stream size : 89.5 MiB (4%)<br>
Title : Audio Description<br>
Language : English<br>
Service kind : Complete Main<br>
Default : No<br>
Forced : No<br>
Dialog Normalization : -23 dB<br>
compr : -0.28 dB<br>
dmixmod : Lo/Ro<br>
ltrtcmixlev : -3.0 dB<br>
ltrtsurmixlev : -3.0 dB<br>
lorocmixlev : -3.0 dB<br>
lorosurmixlev : -3.0 dB<br>
dialnorm_Average : -23 dB<br>
dialnorm_Minimum : -23 dB<br>
dialnorm_Maximum : -23 dB<br>
<br>
Audio #3<br>
ID : 4<br>
Format : E-AC-3<br>
Format/Info : Enhanced AC-3<br>
Commercial name : Dolby Digital Plus<br>
Codec ID : A_EAC3<br>
Duration : 48 min 52 s<br>
Bit rate mode : Constant<br>
Bit rate : 256 kb/s<br>
Channel(s) : 6 channels<br>
Channel layout : L R C LFE Ls Rs<br>
Sampling rate : 48.0 kHz<br>
Frame rate : 31.250 FPS (1536 SPF)<br>
Compression mode : Lossy<br>
Stream size : 89.5 MiB (4%)<br>
Title : Latin American<br>
Language : Spanish<br>
Service kind : Complete Main<br>
Default : No<br>
Forced : No<br>
Dialog Normalization : -23 dB<br>
compr : -0.28 dB<br>
dmixmod : Lo/Ro<br>
ltrtcmixlev : -3.0 dB<br>
ltrtsurmixlev : -3.0 dB<br>
lorocmixlev : -3.0 dB<br>
lorosurmixlev : -3.0 dB<br>
dialnorm_Average : -23 dB<br>
dialnorm_Minimum : -23 dB<br>
dialnorm_Maximum : -23 dB<br>
<br>
Audio #4<br>
ID : 5<br>
Format : E-AC-3<br>
Format/Info : Enhanced AC-3<br>
Commercial name : Dolby Digital Plus<br>
Codec ID : A_EAC3<br>
Duration : 48 min 52 s<br>
Bit rate mode : Constant<br>
Bit rate : 256 kb/s<br>
Channel(s) : 6 channels<br>
Channel layout : L R C LFE Ls Rs<br>
Sampling rate : 48.0 kHz<br>
Frame rate : 31.250 FPS (1536 SPF)<br>
Compression mode : Lossy<br>
Stream size : 89.5 MiB (4%)<br>
Title : European<br>
Language : Spanish<br>
Service kind : Complete Main<br>
Default : No<br>
Forced : No<br>
Dialog Normalization : -23 dB<br>
compr : -0.28 dB<br>
dmixmod : Lo/Ro<br>
ltrtcmixlev : -3.0 dB<br>
ltrtsurmixlev : -3.0 dB<br>
lorocmixlev : -3.0 dB<br>
lorosurmixlev : -3.0 dB<br>
dialnorm_Average : -23 dB<br>
dialnorm_Minimum : -23 dB<br>
dialnorm_Maximum : -23 dB<br>
<br>
Audio #5<br>
ID : 6<br>
Format : E-AC-3<br>
Format/Info : Enhanced AC-3<br>
Commercial name : Dolby Digital Plus<br>
Codec ID : A_EAC3<br>
Duration : 48 min 52 s<br>
Bit rate mode : Constant<br>
Bit rate : 256 kb/s<br>
Channel(s) : 6 channels<br>
Channel layout : L R C LFE Ls Rs<br>
Sampling rate : 48.0 kHz<br>
Frame rate : 31.250 FPS (1536 SPF)<br>
Compression mode : Lossy<br>
Stream size : 89.5 MiB (4%)<br>
Language : Hungarian<br>
Service kind : Complete Main<br>
Default : No<br>
Forced : No<br>
Dialog Normalization : -23 dB<br>
compr : -0.28 dB<br>
dmixmod : Lo/Ro<br>
ltrtcmixlev : -3.0 dB<br>
ltrtsurmixlev : -3.0 dB<br>
lorocmixlev : -3.0 dB<br>
lorosurmixlev : -3.0 dB<br>
dialnorm_Average : -23 dB<br>
dialnorm_Minimum : -23 dB<br>
dialnorm_Maximum : -23 dB<br>
<br>
Audio #6<br>
ID : 7<br>
Format : E-AC-3<br>
Format/Info : Enhanced AC-3<br>
Commercial name : Dolby Digital Plus<br>
Codec ID : A_EAC3<br>
Duration : 48 min 52 s<br>
Bit rate mode : Constant<br>
Bit rate : 256 kb/s<br>
Channel(s) : 6 channels<br>
Channel layout : L R C LFE Ls Rs<br>
Sampling rate : 48.0 kHz<br>
Frame rate : 31.250 FPS (1536 SPF)<br>
Compression mode : Lossy<br>
Stream size : 89.5 MiB (4%)<br>
Language : Polish<br>
Service kind : Complete Main<br>
Default : No<br>
Forced : No<br>
Dialog Normalization : -23 dB<br>
compr : -0.28 dB<br>
dmixmod : Lo/Ro<br>
ltrtcmixlev : -3.0 dB<br>
ltrtsurmixlev : -3.0 dB<br>
lorocmixlev : -3.0 dB<br>
lorosurmixlev : -3.0 dB<br>
dialnorm_Average : -23 dB<br>
dialnorm_Minimum : -23 dB<br>
dialnorm_Maximum : -23 dB<br>
<br>
Audio #7<br>
ID : 8<br>
Format : E-AC-3<br>
Format/Info : Enhanced AC-3<br>
Commercial name : Dolby Digital Plus<br>
Codec ID : A_EAC3<br>
Duration : 48 min 52 s<br>
Bit rate mode : Constant<br>
Bit rate : 256 kb/s<br>
Channel(s) : 6 channels<br>
Channel layout : L R C LFE Ls Rs<br>
Sampling rate : 48.0 kHz<br>
Frame rate : 31.250 FPS (1536 SPF)<br>
Compression mode : Lossy<br>
Stream size : 89.5 MiB (4%)<br>
Title : Brazilian<br>
Language : Portuguese<br>
Service kind : Complete Main<br>
Default : No<br>
Forced : No<br>
Dialog Normalization : -23 dB<br>
compr : -0.28 dB<br>
dmixmod : Lo/Ro<br>
ltrtcmixlev : -3.0 dB<br>
ltrtsurmixlev : -3.0 dB<br>
lorocmixlev : -3.0 dB<br>
lorosurmixlev : -3.0 dB<br>
dialnorm_Average : -23 dB<br>
dialnorm_Minimum : -23 dB<br>
dialnorm_Maximum : -23 dB<br>
<br>
Text #1<br>
ID : 9<br>
Format : UTF-8<br>
Codec ID : S_TEXT/UTF8<br>
Codec ID/Info : UTF-8 Plain Text<br>
Duration : 47 min 40 s<br>
Bit rate : 74 b/s<br>
Frame rate : 0.288 FPS<br>
Count of elements : 823<br>
Stream size : 26.1 KiB (0%)<br>
Language : English<br>
Default : No<br>
Forced : No<br>
<br>
Text #2<br>
ID : 10<br>
Format : UTF-8<br>
Codec ID : S_TEXT/UTF8<br>
Codec ID/Info : UTF-8 Plain Text<br>
Duration : 47 min 34 s<br>
Bit rate : 97 b/s<br>
Frame rate : 0.248 FPS<br>
Count of elements : 707<br>
Stream size : 34.0 KiB (0%)<br>
Language : Bulgarian<br>
Default : No<br>
Forced : No<br>
<br>
Text #3<br>
ID : 11<br>
Format : UTF-8<br>
Codec ID : S_TEXT/UTF8<br>
Codec ID/Info : UTF-8 Plain Text<br>
Duration : 47 min 34 s<br>
Bit rate : 55 b/s<br>
Frame rate : 0.245 FPS<br>
Count of elements : 700<br>
Stream size : 19.3 KiB (0%)<br>
Language : Danish<br>
Default : No<br>
Forced : No<br>
<br>
Text #4<br>
ID : 12<br>
Format : UTF-8<br>
Codec ID : S_TEXT/UTF8<br>
Codec ID/Info : UTF-8 Plain Text<br>
Duration : 47 min 34 s<br>
Bit rate : 54 b/s<br>
Frame rate : 0.246 FPS<br>
Count of elements : 703<br>
Stream size : 19.1 KiB (0%)<br>
Title : Latin American<br>
Language : Spanish<br>
Default : No<br>
Forced : No<br>
<br>
Text #5<br>
ID : 13<br>
Format : UTF-8<br>
Codec ID : S_TEXT/UTF8<br>
Codec ID/Info : UTF-8 Plain Text<br>
Duration : 46 min 55 s<br>
Bit rate : 60 b/s<br>
Frame rate : 0.252 FPS<br>
Count of elements : 708<br>
Stream size : 20.9 KiB (0%)<br>
Title : European<br>
Language : Spanish<br>
Default : No<br>
Forced : No<br>
<br>
Text #6<br>
ID : 14<br>
Format : UTF-8<br>
Codec ID : S_TEXT/UTF8<br>
Codec ID/Info : UTF-8 Plain Text<br>
Duration : 47 min 34 s<br>
Bit rate : 58 b/s<br>
Frame rate : 0.247 FPS<br>
Count of elements : 704<br>
Stream size : 20.3 KiB (0%)<br>
Language : Finnish<br>
Default : No<br>
Forced : No<br>
<br>
Text #7<br>
ID : 15<br>
Format : UTF-8<br>
Codec ID : S_TEXT/UTF8<br>
Codec ID/Info : UTF-8 Plain Text<br>
Duration : 47 min 34 s<br>
Bit rate : 53 b/s<br>
Frame rate : 0.245 FPS<br>
Count of elements : 700<br>
Stream size : 18.7 KiB (0%)<br>
Language : Croatian<br>
Default : No<br>
Forced : No<br>
<br>
Text #8<br>
ID : 16<br>
Format : UTF-8<br>
Codec ID : S_TEXT/UTF8<br>
Codec ID/Info : UTF-8 Plain Text<br>
Duration : 47 min 34 s<br>
Bit rate : 59 b/s<br>
Frame rate : 0.248 FPS<br>
Count of elements : 708<br>
Stream size : 20.6 KiB (0%)<br>
Language : Hungarian<br>
Default : No<br>
Forced : No<br>
<br>
Text #9<br>
ID : 17<br>
Format : UTF-8<br>
Codec ID : S_TEXT/UTF8<br>
Codec ID/Info : UTF-8 Plain Text<br>
Duration : 47 min 34 s<br>
Bit rate : 102 b/s<br>
Frame rate : 0.248 FPS<br>
Count of elements : 707<br>
Stream size : 35.6 KiB (0%)<br>
Language : Macedonian<br>
Default : No<br>
Forced : No<br>
<br>
Text #10<br>
ID : 18<br>
Format : UTF-8<br>
Codec ID : S_TEXT/UTF8<br>
Codec ID/Info : UTF-8 Plain Text<br>
Duration : 47 min 34 s<br>
Bit rate : 54 b/s<br>
Frame rate : 0.245 FPS<br>
Count of elements : 700<br>
Stream size : 18.9 KiB (0%)<br>
Language : Norwegian Bokmal<br>
Default : No<br>
Forced : No<br>
<br>
Text #11<br>
ID : 19<br>
Format : UTF-8<br>
Codec ID : S_TEXT/UTF8<br>
Codec ID/Info : UTF-8 Plain Text<br>
Duration : 47 min 30 s<br>
Bit rate : 51 b/s<br>
Frame rate : 0.236 FPS<br>
Count of elements : 673<br>
Stream size : 18.0 KiB (0%)<br>
Language : Dutch<br>
Default : No<br>
Forced : No<br>
<br>
Text #12<br>
ID : 20<br>
Format : UTF-8<br>
Codec ID : S_TEXT/UTF8<br>
Codec ID/Info : UTF-8 Plain Text<br>
Duration : 47 min 34 s<br>
Bit rate : 55 b/s<br>
Frame rate : 0.247 FPS<br>
Count of elements : 704<br>
Stream size : 19.5 KiB (0%)<br>
Title : Brazilian<br>
Language : Portuguese<br>
Default : No<br>
Forced : No<br>
<br>
Text #13<br>
ID : 21<br>
Format : UTF-8<br>
Codec ID : S_TEXT/UTF8<br>
Codec ID/Info : UTF-8 Plain Text<br>
Duration : 47 min 34 s<br>
Bit rate : 57 b/s<br>
Frame rate : 0.245 FPS<br>
Count of elements : 699<br>
Stream size : 20.0 KiB (0%)<br>
Title : European<br>
Language : Portuguese<br>
Default : No<br>
Forced : No<br>
<br>
Text #14<br>
ID : 22<br>
Format : UTF-8<br>
Codec ID : S_TEXT/UTF8<br>
Codec ID/Info : UTF-8 Plain Text<br>
Duration : 47 min 34 s<br>
Bit rate : 57 b/s<br>
Frame rate : 0.246 FPS<br>
Count of elements : 701<br>
Stream size : 20.1 KiB (0%)<br>
Language : Romanian<br>
Default : No<br>
Forced : No<br>
<br>
Text #15<br>
ID : 23<br>
Format : UTF-8<br>
Codec ID : S_TEXT/UTF8<br>
Codec ID/Info : UTF-8 Plain Text<br>
Duration : 47 min 34 s<br>
Bit rate : 55 b/s<br>
Frame rate : 0.247 FPS<br>
Count of elements : 704<br>
Stream size : 19.3 KiB (0%)<br>
Language : Slovenian<br>
Default : No<br>
Forced : No<br>
<br>
Text #16<br>
ID : 24<br>
Format : UTF-8<br>
Codec ID : S_TEXT/UTF8<br>
Codec ID/Info : UTF-8 Plain Text<br>
Duration : 47 min 34 s<br>
Bit rate : 51 b/s<br>
Frame rate : 0.247 FPS<br>
Count of elements : 704<br>
Stream size : 17.9 KiB (0%)<br>
Language : Serbian<br>
Default : No<br>
Forced : No<br>
<br>
Text #17<br>
ID : 25<br>
Format : UTF-8<br>
Codec ID : S_TEXT/UTF8<br>
Codec ID/Info : UTF-8 Plain Text<br>
Duration : 47 min 34 s<br>
Bit rate : 56 b/s<br>
Frame rate : 0.246 FPS<br>
Count of elements : 701<br>
Stream size : 19.7 KiB (0%)<br>
Language : Swedish<br>
Default : No<br>
Forced : No<br>
<br>
Menu<br>
00:00:36.036 : en:Recap<br>
00:02:16.970 : en:Content<br>
00:02:20.974 : en:Intro<br>
00:03:25.039 : en:Content<br>
00:50:13.176 : en:Credits</div>
</div><br>
<b>Screenshots</b><br>
<img src="https://i.imgur.com/G5Q9P1a.png" class="bbCodeImage LbImage" alt="[​IMG]" data-url="https://i.imgur.com/G5Q9P1a.png" style=""><br>
<b><a href="https://imgur.com/a/SqBSI5B" target="_blank" class="externalLink" rel="nofollow">More Episodes Screenshots</a></b><br>
<br>
<b>Download</b><br>
<div class="bbCodeBlock bbCodeVfcHH HiddenContent">
<div class="attribution type">Hidden Content:</div>
<blockquote>You must reply before you can see the hidden data contained here.</blockquote>
</div></div>
<div class="messageTextEndMarker">&nbsp;</div>
</blockquote>
</article>]]></description>
                <author><![CDATA[Samuel]]></author>
                </item>

                </channel></rss>